<svg version="1.2" xmlns="http://www.w3.org/2000/svg" viewBox="0 0 1280 1280" width="1280" height="1280">
	<title>New Project</title>
	<style>
		.s0 { fill: #000000 } 
		.s1 { fill: #ffffff;stroke: #000000;stroke-width: 11 } 
		.s2 { fill: #000000;stroke: #000000;stroke-width: 11 } 
		.s3 { fill: #ffffff;stroke: #000000;stroke-width: 4.2 } 
		.s4 { fill: #ffffff } 
		.s5 { fill: #ffffff;stroke: #000000;stroke-width: 6.8 } 
		.s6 { fill: #252526 } 
	</style>
	<path id="Shape 2" class="s0" d="m645.5 1108c-164 0-296.5-12.5-296.5-28 0-15.5 132.5-28 296.5-28 164 0 296.5 12.5 296.5 28 0 15.5-132.5 28-296.5 28z"/>
	<path id="Shape 1" class="s1" d="m640 1092.7c-166.7 0-302-43.7-302-276.2 0-232.5 135.3-628.2 302-628.2 166.7 0 301 395.7 301 628.2 0 232.5-134.3 276.2-301 276.2z"/>
	<path id="Shape 3" class="s0" d="m857.3 611.8c-112.2 2.8-121.6-134-144.7-189.9-23-56-10.7-101.2 27.5-101.3 38.3-0.1 75.1 42 98.1 97.9 23.1 55.9 57.4 192.3 19.1 193.3z"/>
	<path id="Shape 3 copy" class="s0" d="m710 568.5c18-5.1 49.4 33.9 67.7 57.1 18.2 23.2 18.5 46.1 0.5 51.2-17.9 5.2-47.2-9.4-65.5-32.6-18.3-23.2-20.6-70.5-2.7-75.7z"/>
	<path id="Shape 3 copy 2" class="s0" d="m683.3 428.9c17.6 6.2 19.5 25.3 21 54.8 1.5 29.5-16.8 24-34.4 17.8-17.6-6.1-27.9-10.7-29.4-40.2-1.5-29.5 25.2-38.6 42.8-32.4z"/>
	<path id="Shape 4" class="s2" d="m490.2 291.5l43.5-36.6 1.9 34.8 28.9-7.3-3.5 19.6 87.5 42.2-90.1-22.5-29.4 31.6-22-28.3-44.2 15.6z"/>
	<path id="Shape 128 copy" class="s3" d="m378 289.5c-6.5-14.4 34.8-74.9 77.8-95.3 43.1-20.1 115.7-31.8 122.3-17.4 6.5 14.5-54.6 51.7-97.6 71.8-42.9 20.3-96 55.4-102.5 40.9z"/>
	<path id="Shape 126 copy" class="s0" d="m478.8 267.4c-17.7-31.6-39.5-58.6-25.6-62.9 14.2-4.1 43.9 11.6 64.2 41.8 18.6 27.7 51.6 79.9 23.6 97-25.8 16-44.3-44.1-62.2-75.9z"/>
	<path id="Shape 129 copy" class="s0" d="m375.4 284.5c-1.5-4-4.5-95.7 60.2-123.4 60.1-25.7 140.8 0.4 143.8 12.5 5.2 21.5-56.6 34.7-119.6 65.9-62.8 31.4-76.7 65.7-84.4 45z"/>
	<path id="Shape 133 copy" class="s4" d="m408.5 194.5c1.3-8 8.7-15.6 16.5-17.1 7.7-1.3 13 4.1 11.6 12.2-1.5 8.1-9.1 15.8-16.9 17-7.6 1.4-12.6-4-11.2-12.1z"/>
	<path id="Shape 134 copy" class="s4" d="m482.2 192.6c2.3-7.8 9.2-13.1 15.7-12.7 6.4 0.3 10.9 5.8 10.2 13.1-0.6 8.2-7.5 15.8-15.5 15.8-8.2 0.3-12.9-7.5-10.4-16.2z"/>
	<path id="Shape 136 copy" class="s4" d="m445.3 165.8c1.9-0.3 3.8 1 4.1 2.6 0.2 1.8-1.3 3.3-3.5 3.5-1.9 0.3-3.6-0.9-3.8-2.7-0.3-1.6 1.3-3.2 3.2-3.4z"/>
	<path id="Shape 91" class="s5" d="m902.1 978.9l-29.8-15.8-2.4-24.9-51-6.1 37.5-0.8 4.6-16.3 36 23 21.6 0.2"/>
	<path id="Shape 92" class="s5" d="m933 956"/>
	<path id="Shape 137 copy" class="s4" d="m400.9 256.5c0.9 0.1 1.7 0.7 1.9 1.9 0.2 1.2-0.6 2.1-1.4 2.2-0.8 0.2-1.8-0.6-2-1.8-0.2-1.1 0.7-2.1 1.5-2.3z"/>
	<path id="Shape 138 copy" class="s4" d="m456.4 190.8c1.2-0.2 2.4 0.6 2.6 2.1 0 1.3-0.8 2.5-2.1 2.5-1.2 0.2-2.4-0.6-2.6-2.1-0.2-1.1 0.8-2.5 2.1-2.5z"/>
	<path id="Shape 85 copy 4" class="s0" d="m875.9 961.2c-6.3-4.7-4-24.7-17.2-25.4-2-0.1 3.7-28.9 9.1-17 1.9 4 21.4 18.3 51.6 22.5 78.1 10.7 134.9-0.8 111.1 3.5-32.7 5.9-59 34.7-94 29.7-45.9-6.5-13.7 21.5-60.6-13.3z"/>
	<path id="Shape 90" class="s3" d="m974.8 938.3c8.6-5.5 11.5-17.2 23.7 0 12.2 17.1 15.2 35.4 6.6 40.9-8.6 5.5-25.5-3.9-37.6-21.1-12.3-17.1-1.2-14.3 7.3-19.8z"/>
	<path id="Shape 90 copy" class="s3" d="m954.9 909.8c8.6-5.5 25.4 3.9 37.6 21.2 12.2 17.1 5.8 23.5-2.8 29-8.6 5.4-16 8-28.2-9.2-12.3-17.2-15.2-35.5-6.6-41z"/>
	<path id="Shape 90 copy 2" class="s3" d="m997.6 933.5c6.9-4.4 9.3-14 19.2 0 10 13.9 12.4 28.8 5.4 33.3-7 4.5-20.7-3.2-30.6-17.2-10-14-1-11.6 6-16.1z"/>
	<path id="Shape 90 copy 3" class="s3" d="m977.2 903c6.9-4.5 20.6 3.2 30.6 17.2 10 13.9 4.7 19.1-2.3 23.6-7 4.4-13 6.4-22.9-7.5-10-14-12.4-28.9-5.4-33.3z"/>
	<path id="Shape 90 copy 4" class="s3" d="m1013 925.2c5.3-3.4 7-10.6 14.5 0 7.5 10.5 9.4 21.8 4.1 25.2-5.3 3.4-15.7-2.4-23.2-13-7.5-10.6-0.7-8.8 4.6-12.2z"/>
	<path id="Shape 90 copy 6" class="s3" d="m1023.4 923.2c-5-4.2-12.8-4.3-4.6-13.5 8.2-9.4 18.9-13.6 23.9-9.3 5.1 4.1 2.5 15.1-5.6 24.4-8.2 9.4-8.6 2.6-13.7-1.6z"/>
	<path id="Shape 90 copy 5" class="s3" d="m998.3 903.5c5.3-3.3 15.7 2.4 23.2 13.1 7.5 10.5 3.6 14.5-1.7 17.8-5.3 3.4-9.9 4.9-17.4-5.7-7.5-10.5-9.4-21.8-4.1-25.2z"/>
	<path id="Shape 93" class="s6" d="m394.7 976.7c-8.8-1.8-15.9-11.1-15.7-20.6 0.2-9.4 7.5-14.9 16.1-12.6 8.3 2.3 14.8 11.2 14.8 20 0 9-6.7 14.9-15.2 13.2z"/>
	<path id="Shape 93 copy" class="s6" d="m431.3 970.4c-7.3-1.6-13.3-9.4-13.1-17.3 0.1-7.9 6.3-12.5 13.4-10.5 7 1.9 12.4 9.3 12.4 16.7 0 7.6-5.6 12.5-12.7 11.1z"/>
	<path id="Shape 93 copy 2" class="s6" d="m454.8 1000.4c-5.4-1.1-9.8-6.8-9.6-12.6 0.1-5.7 4.5-9 9.8-7.6 5 1.4 9 6.8 9 12.2 0 5.5-4.1 9.1-9.2 8z"/>
	<path id="Shape 93 copy 4" class="s6" d="m420.8 1000.4c-5.4-1.1-9.8-6.8-9.6-12.6 0.1-5.7 4.5-9 9.8-7.6 5 1.4 9 6.8 9 12.2 0 5.5-4.1 9.1-9.2 8z"/>
	<path id="Shape 93 copy 3" class="s6" d="m445.5 1024c-3.6-0.7-6.6-4.6-6.5-8.6 0.1-3.9 3.1-6.2 6.7-5.2 3.4 1 6.2 4.7 6.2 8.3 0 3.8-2.8 6.3-6.4 5.5z"/>
</svg>