<svg version="1.2" xmlns="http://www.w3.org/2000/svg" viewBox="0 0 1500 500" width="1500" height="500">
	<title>twitter_bg</title>
	<style>
		.s0 { fill: #fffcfc;stroke: #000000;paint-order:stroke fill markers;stroke-linejoin: round;stroke-width: 20 } 
		.s1 { fill: #000000 } 
		.s2 { fill: #ffffff;stroke: #000000;stroke-width: 4.2 } 
		.s3 { fill: #ffffff } 
	</style>
	<path id="BodyShape" class="s0" d="m1257.2-357.5c46.5 0.7 151.7-6.4 181.4 60 25.5 57.3-21 182.5-22.1 258-0.6 46.2 11.8 124 0.5 160.3-28.7 92.2-105.9 112.8-168.1 111.9-45.3-0.6-118.4-21.2-146.1-79.5-25.3-53-7.4-140.1-6.3-217.8 0.9-65.8-54.1-173.4-34.1-222.2 29.5-72.1 143.1-71.4 194.8-70.7z"/>
	<path id="Shape 4" fill-rule="evenodd" class="s1" d="m1332.7 95.7q-10.6 5.9-23.1 5.8-12.4-0.2-22.8-6.5-10.4-6.2-16.4-16.8-5.9-10.6-5.8-23 0.2-12.5 6.5-22.9 6.2-10.4 16.8-16.3 10.6-6 23-5.8 12.5 0.1 22.9 6.4 10.4 6.3 16.3 16.8 6 10.6 5.8 23-0.1 12.5-6.4 22.9-6.3 10.4-16.8 16.4zm-12.6-62.1q0.9-0.5 1.9-0.5 1 0.1 1.9 0.5 1.9 1.2 1.9 3.4l-0.6 38q0 2.2-1.9 3.3-2 1.1-3.8-0.1l-32.1-19.4q-1.9-1.1-1.8-3.3 0-2.2 1.9-3.3z"/>
	<path id="Shape 4 copy" fill-rule="evenodd" class="s1" d="m1172.8 13.1q10.6-5.8 23.1-5.4 12.4 0.4 22.7 6.9 10.3 6.4 16.1 17.1 5.7 10.7 5.3 23.1-0.4 12.5-6.8 22.7-6.5 10.3-17.2 16.1-10.7 5.8-23.1 5.4-12.4-0.4-22.7-6.9-10.3-6.4-16.1-17.1-5.7-10.7-5.3-23.1 0.4-12.4 6.8-22.7 6.5-10.3 17.2-16.1zm11.4 62.2q-0.9 0.5-2 0.5-0.9 0-1.8-0.5-1.9-1.2-1.8-3.4l1.2-38.1q0.1-2.1 2-3.2 2-1 3.8 0.2l31.7 20q1.9 1.2 1.8 3.4-0.1 2.2-2 3.2z"/>
	<path id="Shape 128" class="s2" d="m1148.5 243.6c38.2 13.8 93.2 40.3 88.7 52.8-4.5 12.4-67.6 7.7-105.8-6.1-38.2-13.8-78-61.1-73.5-73.6 4.5-12.4 52.4 13.1 90.6 26.9z"/>
	<path id="Shape 126" class="s1" d="m1178.1 186.4c35.2 19.1 9 26.9 0.2 51.6-8.7 24.7-22.5 42.8-38.7 37-16.2-5.8-1.7-25.7 7.2-50.4 8.7-24.6-1-55.8 31.3-38.2z"/>
	<path id="Shape 127" class="s1" d="m1199.2 189.1c9.1 12.5 4 20 0.2 22.7-3.7 2.8 5.8-7-3.4-19.5-9.2-12.6-24.1-10-20.4-12.7 3.8-2.8 14.4-3 23.6 9.5z"/>
	<path id="Shape 129" class="s1" d="m1131.6 252.6c56.1 21.6 109.8 28.2 106.9 46.4-1.6 10.3-68.8 37.3-122.1 20.1-57.2-18.4-61.4-94.7-60.4-98.1 5.2-17.6 19.5 9.9 75.6 31.6z"/>
	<path id="Shape 130" class="s3" d="m1204 293.9c7.5-1.6 12.9 1.4 11.4 7.9-1.8 7.7-12.3 16.3-22.2 17.4-9.2 1.1-12.2-4.9-7.9-12.1 3.6-6.1 11.6-11.6 18.7-13.2z"/>
	<path id="Shape 131" class="s3" d="m1175.7 269.1c8.8 1.9-12.2 14.4-20.9 14.9-8.6 0.7-13.2-6.8-16.8-15.1-1.3-3.1-3.8-12.2-2-11.5 9.5 3.6 33.6 10.3 39.7 11.7z"/>
	<path id="Shape 132" class="s3" d="m1163.2 300.3c3.1 0.6 4.6 3.6 3.5 6.6-1 2.9-4.2 5.2-7.4 5.1-3.5-0.1-5.8-3-4.7-6.5 1.1-3.6 5.1-6 8.6-5.2z"/>
	<path id="Shape 133" class="s3" d="m1102.9 285.4c6.8 0.6 13.8 6.4 15.6 13.1 1.8 6.6-2.2 11.4-8.9 10.8-6.8-0.7-13.6-6.5-15.4-13-1.9-6.6 2.1-11.4 8.7-10.9z"/>
	<path id="Shape 134" class="s3" d="m1079.8 236.7c6.9-0.4 13.3 5.4 14.5 12.1 1 6-2.4 10.9-7.8 11.6-5.5 0.7-11.9-3.2-14.3-9.5-2.8-7 0.5-13.8 7.6-14.2z"/>
	<path id="Shape 135" class="s3" d="m1103.2 262.1c2.1-0.4 4.5 0.8 5.6 3.1 1.4 2.9-0.1 5.9-3.3 6-2.8 0.2-5.1-2.2-5.4-4.7-0.1-2.2 1.2-3.9 3.1-4.4z"/>
	<path id="Shape 136" class="s3" d="m1127.9 312.5c1.7 0 3.1 1.1 3.1 2.5 0 1.4-1.4 2.6-3.1 2.6-1.7 0-3.1-1.1-3.1-2.6 0-1.4 1.3-2.5 3.1-2.5z"/>
	<path id="Shape 137" class="s3" d="m1083.8 283.4c0.8 0 1.5 0.8 1.5 1.7 0 1-0.7 1.7-1.4 1.7-0.8 0-1.5-0.7-1.5-1.7 0-0.9 0.6-1.7 1.4-1.7z"/>
	<path id="Shape 138" class="s3" d="m1135.5 292.2c1.1 0 2 0.9 2 2 0 1.1-0.8 2-2 2-1.1 0-2-0.9-2-2 0-1.1 0.9-2 2-2z"/>
	<path id="Shape 128 copy 2" class="s2" d="m1473.8 202.9c7.1 16.9-45.6 85.1-98.3 106.8-52.8 21.7-141 32.4-148 15.5-7.2-17 68.2-57.4 120.9-79.1 52.7-21.6 118.2-60.1 125.4-43.2z"/>
	<path id="Shape 126 copy 2" class="s1" d="m1345.9 214.7c0 0.6-3.7 6.5-2.9 10.6 4.2 20.3 11.7 15.9 14.4 21.3 10.7 21.6 2.2 39.1 0.9 38.9-21.3-2.9-31.7 6.5-44-44.8-7.4-31.5-52.1-36.5-9.2-62.2 38.3-23 37.6 5.2 40.8 36.2z"/>
	<path id="Shape 127 copy 2" class="s1" d="m1350.3 170.6c-9.3-1.9-14.7-17.1-41.2-5.6-27.9 11.9-31.8 43.1-31.4 26.6 0.2-7.6 13.1-32.3 38.3-36.6 25.2-4.4 35.4 15.8 34.3 15.6z"/>
	<path id="Shape 129 copy 2" class="s1" d="m1476.7 208.7c1.6 4.8 0.6 110.5-78.4 139.9-73.7 27.3-169.5-5.6-172.5-19.8-5.3-24.9 69.7-37.7 146.9-71.4 77.2-33.6 95.5-72.7 104-48.7z"/>
	<path id="Shape 130 copy 2" class="s3" d="m1336.1 329.6c6.4 9.7 2.7 18.2-10.2 17.4-14.1-1-29.3-12.2-32.3-22.7-2.5-8.9 4.8-13.4 15.5-11.7 10.1 1.7 21.6 8.8 27 17z"/>
	<path id="Shape 132 copy 2" class="s3" d="m1250.1 319.1c0.9 4.1-2 7.2-6 7-3.8-0.1-7.3-3-8.3-6.4-0.9-3.6 1-6.9 4.8-7.4 4.1-0.5 8.5 2.6 9.5 6.8z"/>
	<path id="Shape 133 copy 2" class="s3" d="m1434.8 323.9c4.3-1.2-2.6 5-5.6 7.3-9.7 7.4-23.2 17.5-36.4 20.1-8.8 1.7-18.3 4.3-17.1-1 0.7-2.4-1-5.7 1.3-12.2 4.7-12.8 17-24.9 30.4-26.4 9.7-1 21.3 14 27.4 12.2z"/>
	<path id="Shape 134 copy 2" class="s3" d="m1460.8 259.7c-3 8.8-11.7 14.6-19.5 14-7.5-0.5-12.7-7.1-11.6-15.4 1.2-9.5 9.9-18 19.4-17.9 10 0.1 15.2 9.3 11.7 19.3z"/>
	<path id="Shape 135 copy 2" class="s3" d="m1417.7 290.6c-0.2 3.5-3.3 6.9-7.3 7-4.4-0.1-6.6-4.1-5-8.2 1.4-3.3 4.8-5.1 7.7-4.6 2.7 0.4 4.7 2.8 4.6 5.8z"/>
	<path id="Shape 136 copy 2" class="s3" d="m1356.9 298.7c-2.5 0.2-4.6-1.2-4.8-3.2-0.1-2 1.7-3.7 4.2-3.9 2.3-0.2 4.5 1.2 4.6 3.1 0.2 2-1.6 3.7-4 4z"/>
	<path id="Shape 138 copy 2" class="s3" d="m1282.7 336.2c-0.8-0.5-1.1-1.7-0.5-2.6 0.6-0.8 1.7-1.1 2.5-0.6 0.9 0.6 1.1 1.8 0.6 2.6-0.6 0.9-1.7 1.1-2.6 0.6z"/>
	<path id="Shape 128 copy" class="s2" d="m1286 262.6c-1.5 5.4-26.5 12.7-43 8.5-16.3-4.3-38.9-17.5-37.4-23 1.5-5.4 26.7-1.7 43 2.5 16.4 4.2 38.9 6.5 37.4 12z"/>
	<path id="Shape 126 copy" class="s1" d="m1257.4 243.6c-2.3 12.8-2.4 25.1-7.2 23.1-4.8-2.1-4.8-13.4-2.5-26.1 2.3-12.7-2.4-23.2 9.1-21.5 10.7 1.4 2.9 11.8 0.6 24.5z"/>
	<path id="Shape 127 copy" class="s1" d="m1265.7 219.1c-0.2 2.2-2.4-4.5-9.2-5.5-6.9-1.1-8.7 4.9-8.4 2.8 0.3-2.1 2.1-5.8 9-4.7 6.8 1 8.9 5.3 8.6 7.4z"/>
	<path id="Shape 129 copy" class="s1" d="m1285.6 264.6c-0.5 1.4-20.5 27.2-44.5 20.1-22.3-6.6-38.5-32-36.6-36 3.5-7 23.4 3.3 47.7 9.1 24.4 5.6 35.9-0.7 33.4 6.8z"/>
	<path id="Shape 132 copy" class="s3" d="m1218.9 259.9c-0.5 1.4-2 1.9-3.2 1.1-1.2-0.7-1.7-2.3-1.3-3.6 0.4-1.3 1.6-1.9 2.9-1.4 1.3 0.5 2.1 2.3 1.6 3.9z"/>
	<path id="Shape 133 copy" class="s3" d="m1256.1 281.7c-2.2 1.9-5.9 2.3-8.4 1-2.4-1.4-2.6-4.1-0.4-6 2.2-1.9 6.1-2.3 8.5-0.8 2.4 1.3 2.5 3.9 0.3 5.8z"/>
	<path id="Shape 134 copy" class="s3" d="m1235.5 265.6c-2.4 1.6-5.5 1.4-7.2-0.1-1.7-1.6-1.7-4.1 0.2-5.9 2-2.1 5.6-2.7 7.8-0.9 2.3 1.8 1.8 5-0.8 6.9z"/>
	<path id="Shape 136 copy" class="s3" d="m1239.5 281.3c-0.6-0.4-0.8-1.2-0.5-1.7 0.3-0.5 1.1-0.6 1.7-0.2 0.6 0.4 0.8 1.1 0.5 1.6-0.3 0.5-1.1 0.6-1.7 0.3z"/>
	<path id="Shape 138 copy" class="s3" d="m1242.1 271.9c-0.4-0.2-0.5-0.7-0.2-1.2 0.3-0.3 0.8-0.5 1.1-0.2 0.4 0.2 0.6 0.7 0.3 1.2-0.3 0.3-0.8 0.5-1.2 0.2z"/>
	<path id="BodyShape" class="s0" d="m865.2-431.9c46.5 0.7 151.7-6.4 181.3 60 25.6 57.3-21 182.5-22 258-0.7 46.2 11.8 124 0.5 160.3-28.7 92.2-106 112.8-168.1 111.9-45.3-0.6-118.4-21.2-146.2-79.5-25.2-53-7.3-140.1-6.3-217.8 1-65.8-54-173.4-34-222.2 29.5-72.1 143.1-71.4 194.8-70.7z"/>
	<path id="Eyes" class="s1" d="m927.6-64.3c2.7 0 1.2 20.8 12.9 35.6 3.8 4.9 0.3-26.9 2.8-27.9 10.4-3.9 12.4 22.2 12.1 38-0.3 25.1-13.3 45.2-29.1 45-1.2 0-2.4-0.9-3.5-0.4-5.3 2.8-1.6-66.5-10.5-5.7-1.8 11.7-14.1-22.8-13.8-39.7 0.3-25.1 13.3-45.2 29.1-44.9zm0 0c2.7 0 1.2 20.8 12.9 35.6 3.8 4.9 0.3-26.9 2.8-27.9 10.4-3.9 12.4 22.2 12.1 38-0.3 25.1-13.3 45.2-29.1 45-1.2 0-2.4-0.9-3.5-0.4-5.3 2.8-1.6-66.5-10.5-5.7-1.8 11.7-14.1-22.8-13.8-39.7 0.3-25.1 13.3-45.2 29.1-44.9zm-72.5-0.3c2.7 0 1.3 20.9 12.9 35.7 3.9 4.9 0.4-27 2.8-27.9 10.5-4 12.4 22.2 12.2 38-0.4 25.1-13.4 45.2-29.1 45-1.2-0.1-2.5-1-3.5-0.4-5.3 2.7-1.7-66.6-10.6-5.8-1.7 11.7-14-22.7-13.8-39.6 0.4-25.1 13.4-45.2 29.1-45zm0 0c2.7 0 1.3 20.9 12.9 35.7 3.9 4.9 0.4-27 2.8-27.9 10.5-4 12.4 22.2 12.2 38-0.4 25.1-13.4 45.2-29.1 45-1.2-0.1-2.5-1-3.5-0.4-5.3 2.7-1.7-66.6-10.6-5.8-1.7 11.7-14-22.7-13.8-39.6 0.4-25.1 13.4-45.2 29.1-45zm-70.1-1.7c2.6 0 1.2 20.8 12.9 35.6 3.8 4.9 0.3-26.9 2.7-27.8 10.5-4 12.4 22.1 12.2 37.9-0.3 25.1-13.4 45.2-29.1 45-1.2 0-2.5-0.9-3.5-0.4-5.3 2.8-1.7-66.5-10.6-5.7-1.7 11.7-14-22.8-13.8-39.7 0.4-25.1 13.4-45.2 29.2-44.9zm0 0c2.6 0 1.2 20.8 12.9 35.6 3.8 4.9 0.3-26.9 2.7-27.8 10.5-4 12.4 22.1 12.2 37.9-0.3 25.1-13.4 45.2-29.1 45-1.2 0-2.5-0.9-3.5-0.4-5.3 2.8-1.7-66.5-10.6-5.7-1.7 11.7-14-22.8-13.8-39.7 0.4-25.1 13.4-45.2 29.2-44.9z"/>
	<path id="Horns" class="s1" d="m935.3 83.9c11.9-6.5 19.7-26.1 39.1-7.7 15.8 15 32.1 36.6 46.2 62.3 31.5 57.4-111.7 172.7-103.2 149.6 13.8-38 77.4-69.4 46-126.8-11.7-21.3-41-22.4-45.9-41.1-8.3-31.8 4.2-28.8 17.8-36.3zm-144.3 24.4c-0.4 14.5-25.1 20.2-30.8 37.6-15.3 47.2 64.7 118.3 44 113.3-20.8-5-112.5-73.1-97.2-120.3 6.8-21.1 16.4-39.6 26.8-53.1 12.8-16.7 23.4-3.7 34.8-1 13.1 3.2 23.1-1.1 22.4 23.5z"/>
</svg>